<svg xmlns="http://www.w3.org/2000/svg" xmlns:xlink="http://www.w3.org/1999/xlink" width="250" zoomAndPan="magnify" viewBox="0 0 187.5 112.499997" height="150" preserveAspectRatio="xMidYMid meet" version="1.0"><defs><g/><clipPath id="038eeb4f9a"><path d="M 2.550781 9.617188 L 88.417969 9.617188 L 88.417969 100.710938 L 2.550781 100.710938 Z M 2.550781 9.617188 " clip-rule="nonzero"/></clipPath></defs><g clip-path="url(#038eeb4f9a)"><path fill="#4f6f52" d="M 33.074219 84.019531 L 42.398438 74.261719 C 45.742188 75.234375 48.925781 76.460938 51.941406 77.855469 L 50.253906 79.722656 C 59.03125 84.105469 66.0625 89.132812 71.691406 94.273438 C 73.265625 93.324219 74.78125 92.28125 76.222656 91.15625 C 67.753906 83.347656 50.859375 70.761719 29.648438 70.324219 L 38.039062 61.539062 C 41.507812 62.367188 44.8125 63.476562 47.941406 64.792969 L 46.828125 66.023438 C 61.128906 73.164062 70.796875 82.019531 77.300781 90.289062 C 78.375 89.394531 79.410156 88.457031 80.398438 87.46875 C 71.617188 76.980469 55.285156 61.75 32.734375 58.84375 L 69.503906 25.449219 C 69.503906 25.449219 79.007812 26.71875 88.542969 33.980469 C 80.910156 19.496094 65.707031 9.617188 48.195312 9.617188 C 23.015625 9.617188 2.609375 30.027344 2.609375 55.203125 C 2.609375 80.382812 23.015625 100.789062 48.195312 100.789062 C 55.867188 100.789062 63.101562 98.890625 69.445312 95.539062 C 60.351562 89.9375 46.507812 83.253906 33.074219 84.019531 " fill-opacity="1" fill-rule="nonzero"/></g><g fill="#344936" fill-opacity="1"><g transform="translate(55.433776, 65.765556)"><g><path d="M 13.46875 -19.59375 C 13.46875 -22.40625 11.953125 -23.90625 9.140625 -23.90625 L 1.96875 -23.90625 C 1.671875 -23.90625 1.5 -23.75 1.5 -23.421875 L 1.5 -0.484375 C 1.5 -0.171875 1.671875 0 1.96875 0 L 9.140625 0 C 11.953125 0 13.46875 -1.5 13.46875 -4.296875 L 13.46875 -9.796875 C 13.46875 -10.90625 12.671875 -11.734375 11.59375 -11.921875 L 11.59375 -11.984375 C 12.671875 -12.15625 13.46875 -13 13.46875 -14.09375 Z M 9.5 -15.09375 C 9.5 -14.34375 9.078125 -13.921875 8.3125 -13.921875 L 5.59375 -13.921875 L 5.59375 -19.953125 L 8.3125 -19.953125 C 9.109375 -19.953125 9.5 -19.53125 9.5 -18.765625 Z M 9.5 -5.140625 C 9.5 -4.328125 9.078125 -3.9375 8.3125 -3.9375 L 5.59375 -3.9375 L 5.59375 -9.984375 L 8.3125 -9.984375 C 9.109375 -9.984375 9.5 -9.5625 9.5 -8.78125 Z M 9.5 -5.140625 "/></g></g></g><g fill="#344936" fill-opacity="1"><g transform="translate(71.442615, 65.765556)"><g><path d="M 1.5 -4.296875 C 1.5 -1.5 2.984375 0 5.796875 0 L 9.140625 0 C 11.953125 0 13.4375 -1.5 13.4375 -4.296875 L 13.4375 -19.59375 C 13.4375 -22.40625 11.953125 -23.90625 9.140625 -23.90625 L 5.796875 -23.90625 C 2.984375 -23.90625 1.5 -22.40625 1.5 -19.59375 Z M 6.65625 -3.859375 C 5.890625 -3.859375 5.46875 -4.25 5.46875 -5.046875 L 5.46875 -18.84375 C 5.46875 -19.625 5.890625 -20.046875 6.65625 -20.046875 L 8.390625 -20.046875 C 9.171875 -20.046875 9.59375 -19.625 9.59375 -18.84375 L 9.59375 -5.046875 C 9.59375 -4.25 9.171875 -3.859375 8.390625 -3.859375 Z M 6.65625 -3.859375 "/></g></g></g><g fill="#344936" fill-opacity="1"><g transform="translate(87.421591, 65.765556)"><g><path d="M 1.5 -4.296875 C 1.5 -1.5 2.984375 0 5.796875 0 L 9.140625 0 C 11.953125 0 13.4375 -1.5 13.4375 -4.296875 L 13.4375 -19.59375 C 13.4375 -22.40625 11.953125 -23.90625 9.140625 -23.90625 L 5.796875 -23.90625 C 2.984375 -23.90625 1.5 -22.40625 1.5 -19.59375 Z M 6.65625 -3.859375 C 5.890625 -3.859375 5.46875 -4.25 5.46875 -5.046875 L 5.46875 -18.84375 C 5.46875 -19.625 5.890625 -20.046875 6.65625 -20.046875 L 8.390625 -20.046875 C 9.171875 -20.046875 9.59375 -19.625 9.59375 -18.84375 L 9.59375 -5.046875 C 9.59375 -4.25 9.171875 -3.859375 8.390625 -3.859375 Z M 6.65625 -3.859375 "/></g></g></g><g fill="#344936" fill-opacity="1"><g transform="translate(103.400566, 65.765556)"><g><path d="M 14.28125 0 C 14.765625 0 14.9375 -0.296875 14.734375 -0.6875 L 9.328125 -12.75 L 14.40625 -23.1875 C 14.609375 -23.59375 14.421875 -23.90625 13.984375 -23.90625 L 10.84375 -23.90625 C 10.515625 -23.90625 10.3125 -23.75 10.15625 -23.453125 L 5.5625 -14.046875 L 5.5625 -23.296875 C 5.5625 -23.6875 5.34375 -23.90625 4.953125 -23.90625 L 2.09375 -23.90625 C 1.703125 -23.90625 1.5 -23.6875 1.5 -23.296875 L 1.5 -0.59375 C 1.5 -0.203125 1.703125 0 2.09375 0 L 4.953125 0 C 5.34375 0 5.5625 -0.203125 5.5625 -0.59375 L 5.5625 -7.203125 L 6.65625 -9.328125 L 10.421875 -0.453125 C 10.546875 -0.15625 10.75 0 11.109375 0 Z M 14.28125 0 "/></g></g></g><g fill="#344936" fill-opacity="1"><g transform="translate(120.454766, 65.765556)"><g><path d="M 10.671875 -23.90625 C 10.34375 -23.90625 10.1875 -23.71875 10.1875 -23.421875 L 10.1875 -10.8125 L 10.015625 -10.8125 L 5.46875 -23.515625 C 5.375 -23.78125 5.203125 -23.90625 4.921875 -23.90625 L 1.96875 -23.90625 C 1.671875 -23.90625 1.5 -23.71875 1.5 -23.421875 L 1.5 -0.484375 C 1.5 -0.171875 1.671875 0 1.96875 0 L 5.078125 0 C 5.40625 0 5.5625 -0.171875 5.5625 -0.484375 L 5.5625 -13.140625 L 5.703125 -13.140625 L 10.28125 -0.390625 C 10.359375 -0.125 10.546875 0 10.8125 0 L 13.765625 0 C 14.078125 0 14.25 -0.171875 14.25 -0.484375 L 14.25 -23.421875 C 14.25 -23.71875 14.078125 -23.90625 13.765625 -23.90625 Z M 10.671875 -23.90625 "/></g></g></g><g fill="#344936" fill-opacity="1"><g transform="translate(137.240161, 65.765556)"><g><path d="M 13.40625 -23.421875 C 13.40625 -23.71875 13.296875 -23.90625 12.9375 -23.90625 L 1.9375 -23.90625 C 1.671875 -23.90625 1.5 -23.71875 1.5 -23.421875 L 1.5 -0.484375 C 1.5 -0.171875 1.671875 0 1.9375 0 L 12.9375 0 C 13.296875 0 13.40625 -0.171875 13.40625 -0.484375 L 13.40625 -3.46875 C 13.40625 -3.796875 13.296875 -3.9375 12.9375 -3.9375 L 5.46875 -3.9375 L 5.46875 -9.984375 L 11.171875 -9.984375 C 11.46875 -9.984375 11.65625 -10.15625 11.65625 -10.484375 L 11.65625 -13.4375 C 11.65625 -13.765625 11.46875 -13.953125 11.171875 -13.953125 L 5.46875 -13.953125 L 5.46875 -19.921875 L 12.9375 -19.921875 C 13.296875 -19.921875 13.40625 -20.140625 13.40625 -20.4375 Z M 13.40625 -23.421875 "/></g></g></g><g fill="#344936" fill-opacity="1"><g transform="translate(153.18926, 65.765556)"><g><path d="M 5.796875 -23.90625 C 3.015625 -23.90625 1.5 -22.40625 1.5 -19.59375 L 1.5 -12.546875 C 1.5 -11.984375 1.765625 -11.625 2.296875 -11.4375 L 9.375 -9.109375 L 9.375 -5.140625 C 9.375 -4.328125 8.96875 -3.9375 8.1875 -3.9375 L 6.75 -3.9375 C 6 -3.9375 5.5625 -4.328125 5.5625 -5.140625 L 5.5625 -7.4375 C 5.5625 -7.765625 5.40625 -7.921875 5.078125 -7.921875 L 1.96875 -7.921875 C 1.671875 -7.921875 1.5 -7.765625 1.5 -7.4375 L 1.5 -4.296875 C 1.5 -1.5 3.015625 0 5.796875 0 L 9.140625 0 C 11.953125 0 13.4375 -1.5 13.4375 -4.296875 L 13.4375 -11.203125 C 13.4375 -11.765625 13.171875 -12.09375 12.671875 -12.3125 L 5.5625 -14.640625 L 5.5625 -18.765625 C 5.5625 -19.53125 6 -19.953125 6.75 -19.953125 L 8.1875 -19.953125 C 9 -19.953125 9.375 -19.53125 9.375 -18.765625 L 9.375 -16.4375 C 9.375 -16.125 9.5625 -15.953125 9.859375 -15.953125 L 12.96875 -15.953125 C 13.296875 -15.953125 13.4375 -16.125 13.4375 -16.4375 L 13.4375 -19.59375 C 13.4375 -22.40625 11.953125 -23.90625 9.140625 -23.90625 Z M 5.796875 -23.90625 "/></g></g></g><g fill="#344936" fill-opacity="1"><g transform="translate(169.168237, 65.765556)"><g><path d="M 1.375 -23.90625 C 1.078125 -23.90625 0.890625 -23.71875 0.890625 -23.421875 L 0.890625 -20.4375 C 0.890625 -20.140625 1.078125 -19.953125 1.375 -19.953125 L 4.84375 -19.953125 L 4.84375 -0.484375 C 4.84375 -0.15625 5.015625 0 5.3125 0 L 8.421875 0 C 8.75 0 8.90625 -0.15625 8.90625 -0.484375 L 8.90625 -19.953125 L 12.375 -19.953125 C 12.703125 -19.953125 12.84375 -20.140625 12.84375 -20.4375 L 12.84375 -23.421875 C 12.84375 -23.71875 12.703125 -23.90625 12.375 -23.90625 Z M 1.375 -23.90625 "/></g></g></g><g fill="#344936" fill-opacity="1"><g transform="translate(183.956314, 65.765556)"><g/></g></g></svg>